<svg xmlns="http://www.w3.org/2000/svg" width="720" height="420" viewBox="0 0 720 420">
<rect width="100%" height="100%" fill="#ffffff"/>
<text x="360.0" y="28" text-anchor="middle" font-family="system-ui,sans-serif" font-size="16" font-weight="600">Retrieval: dense baseline vs final hybrid pipeline (55 queries)</text>
<line x1="70" y1="330.0" x2="700" y2="330.0" stroke="#e5e7eb"/>
<text x="62" y="334.0" text-anchor="end" font-family="system-ui,sans-serif" font-size="11" fill="#6b7280">0.0</text>
<line x1="70" y1="250.0" x2="700" y2="250.0" stroke="#e5e7eb"/>
<text x="62" y="254.0" text-anchor="end" font-family="system-ui,sans-serif" font-size="11" fill="#6b7280">0.2</text>
<line x1="70" y1="170.0" x2="700" y2="170.0" stroke="#e5e7eb"/>
<text x="62" y="174.0" text-anchor="end" font-family="system-ui,sans-serif" font-size="11" fill="#6b7280">0.4</text>
<line x1="70" y1="90.0" x2="700" y2="90.0" stroke="#e5e7eb"/>
<text x="62" y="94.0" text-anchor="end" font-family="system-ui,sans-serif" font-size="11" fill="#6b7280">0.6</text>
<rect x="96.2" y="282.7" width="94.5" height="47.3" fill="#2563eb" rx="3"/>
<text x="143.5" y="278.7" text-anchor="middle" font-family="system-ui,sans-serif" font-size="10" fill="#111827">0.118</text>
<rect x="201.2" y="86.4" width="94.5" height="243.6" fill="#16a34a" rx="3"/>
<text x="248.5" y="82.4" text-anchor="middle" font-family="system-ui,sans-serif" font-size="10" fill="#111827">0.609</text>
<text x="227.5" y="400" text-anchor="middle" font-family="system-ui,sans-serif" font-size="11" fill="#374151">Recall@5</text>
<rect x="411.2" y="286.4" width="94.5" height="43.6" fill="#2563eb" rx="3"/>
<text x="458.5" y="282.4" text-anchor="middle" font-family="system-ui,sans-serif" font-size="10" fill="#111827">0.109</text>
<rect x="516.2" y="112.5" width="94.5" height="217.5" fill="#16a34a" rx="3"/>
<text x="563.5" y="108.5" text-anchor="middle" font-family="system-ui,sans-serif" font-size="10" fill="#111827">0.544</text>
<text x="542.5" y="400" text-anchor="middle" font-family="system-ui,sans-serif" font-size="11" fill="#374151">MRR</text>
<rect x="70" y="365" width="12" height="12" fill="#2563eb" rx="2"/>
<text x="88" y="375" font-family="system-ui,sans-serif" font-size="11" fill="#374151">Dense baseline</text>
<rect x="230" y="365" width="12" height="12" fill="#16a34a" rx="2"/>
<text x="248" y="375" font-family="system-ui,sans-serif" font-size="11" fill="#374151">Final pipeline</text>
</svg>