<svg xmlns="http://www.w3.org/2000/svg" width="720" height="420" viewBox="0 0 720 420">
<rect width="100%" height="100%" fill="#ffffff"/>
<text x="360.0" y="28" text-anchor="middle" font-family="system-ui,sans-serif" font-size="16" font-weight="600">Job ranker: LightGBM vs baselines (LOO-CV)</text>
<line x1="70" y1="330.0" x2="700" y2="330.0" stroke="#e5e7eb"/>
<text x="62" y="334.0" text-anchor="end" font-family="system-ui,sans-serif" font-size="11" fill="#6b7280">0.0</text>
<line x1="70" y1="243.8" x2="700" y2="243.8" stroke="#e5e7eb"/>
<text x="62" y="247.8" text-anchor="end" font-family="system-ui,sans-serif" font-size="11" fill="#6b7280">0.2</text>
<line x1="70" y1="157.7" x2="700" y2="157.7" stroke="#e5e7eb"/>
<text x="62" y="161.7" text-anchor="end" font-family="system-ui,sans-serif" font-size="11" fill="#6b7280">0.4</text>
<line x1="70" y1="71.5" x2="700" y2="71.5" stroke="#e5e7eb"/>
<text x="62" y="75.5" text-anchor="end" font-family="system-ui,sans-serif" font-size="11" fill="#6b7280">0.6</text>
<rect x="83.1" y="76.1" width="47.2" height="253.9" fill="#2563eb" rx="3"/>
<text x="106.8" y="72.1" text-anchor="middle" font-family="system-ui,sans-serif" font-size="10" fill="#111827">0.590</text>
<rect x="135.6" y="88.6" width="47.2" height="241.4" fill="#16a34a" rx="3"/>
<text x="159.2" y="84.6" text-anchor="middle" font-family="system-ui,sans-serif" font-size="10" fill="#111827">0.560</text>
<rect x="188.1" y="261.2" width="47.2" height="68.8" fill="#dc2626" rx="3"/>
<text x="211.8" y="257.2" text-anchor="middle" font-family="system-ui,sans-serif" font-size="10" fill="#111827">0.160</text>
<text x="175.0" y="400" text-anchor="middle" font-family="system-ui,sans-serif" font-size="11" fill="#374151">NDCG@5</text>
<rect x="293.1" y="82.1" width="47.2" height="247.9" fill="#2563eb" rx="3"/>
<text x="316.8" y="78.1" text-anchor="middle" font-family="system-ui,sans-serif" font-size="10" fill="#111827">0.576</text>
<rect x="345.6" y="88.7" width="47.2" height="241.3" fill="#16a34a" rx="3"/>
<text x="369.2" y="84.7" text-anchor="middle" font-family="system-ui,sans-serif" font-size="10" fill="#111827">0.560</text>
<rect x="398.1" y="238.8" width="47.2" height="91.2" fill="#dc2626" rx="3"/>
<text x="421.8" y="234.8" text-anchor="middle" font-family="system-ui,sans-serif" font-size="10" fill="#111827">0.212</text>
<text x="385.0" y="400" text-anchor="middle" font-family="system-ui,sans-serif" font-size="11" fill="#374151">NDCG@10</text>
<rect x="503.1" y="168.5" width="47.2" height="161.5" fill="#2563eb" rx="3"/>
<text x="526.8" y="164.5" text-anchor="middle" font-family="system-ui,sans-serif" font-size="10" fill="#111827">0.375</text>
<rect x="555.6" y="168.5" width="47.2" height="161.5" fill="#16a34a" rx="3"/>
<text x="579.2" y="164.5" text-anchor="middle" font-family="system-ui,sans-serif" font-size="10" fill="#111827">0.375</text>
<rect x="608.1" y="261.6" width="47.2" height="68.4" fill="#dc2626" rx="3"/>
<text x="631.8" y="257.6" text-anchor="middle" font-family="system-ui,sans-serif" font-size="10" fill="#111827">0.159</text>
<text x="595.0" y="400" text-anchor="middle" font-family="system-ui,sans-serif" font-size="11" fill="#374151">MAP</text>
<rect x="70" y="365" width="12" height="12" fill="#2563eb" rx="2"/>
<text x="88" y="375" font-family="system-ui,sans-serif" font-size="11" fill="#374151">LightGBM</text>
<rect x="230" y="365" width="12" height="12" fill="#16a34a" rx="2"/>
<text x="248" y="375" font-family="system-ui,sans-serif" font-size="11" fill="#374151">Overlap</text>
<rect x="390" y="365" width="12" height="12" fill="#dc2626" rx="2"/>
<text x="408" y="375" font-family="system-ui,sans-serif" font-size="11" fill="#374151">Random</text>
</svg>